<svg width="40" height="40" viewBox="0 0 40 40" fill="none" xmlns="http://www.w3.org/2000/svg">
<path d="M20 40C8.97156 40 0 31.0284 0 20C0 8.97156 8.97156 0 20 0C31.0284 0 40 8.97156 40 20C40 31.0284 31.0284 40 20 40ZM20 2.5C10.35 2.5 2.5 10.35 2.5 20C2.5 29.65 10.35 37.5 20 37.5C29.65 37.5 37.5 29.65 37.5 20C37.5 10.35 29.65 2.5 20 2.5Z" fill="#00FF66"/>
<path d="M18.125 26.6665C17.8049 26.6665 17.485 26.545 17.2415 26.3L11.825 20.8834C11.3367 20.3948 11.3367 19.6032 11.825 19.1149C12.3132 18.6266 13.1049 18.6266 13.5934 19.1149L18.1265 23.6483L28.0768 13.6984C28.5651 13.2101 29.3567 13.2101 29.845 13.6984C30.3333 14.1866 30.3333 14.9783 29.845 15.4666L19.0115 26.3C18.765 26.545 18.4451 26.6665 18.125 26.6665Z" fill="#00FF66"/>
</svg>
