<svg width="32" height="32" viewBox="0 0 32 32" fill="none" xmlns="http://www.w3.org/2000/svg">
<path fill-rule="evenodd" clip-rule="evenodd" d="M16 1.66675C12.134 1.66675 9 4.80076 9 8.66675C9 12.5327 12.134 15.6667 16 15.6667C19.866 15.6667 23 12.5327 23 8.66675C23 4.80076 19.866 1.66675 16 1.66675Z" fill="white"/>
<path fill-rule="evenodd" clip-rule="evenodd" d="M27.8269 20.8191C20.432 16.8894 11.568 16.8894 4.17303 20.8191C3.45119 21.2027 3 21.9534 3 22.7709V27.6666C3 28.9553 4.04467 29.9999 5.33333 29.9999H26.6667C27.9553 29.9999 29 28.9553 29 27.6666V22.7709C29 21.9534 28.5488 21.2027 27.8269 20.8191H27.8269Z" fill="white"/>
</svg>
