<svg width="40" height="40" viewBox="0 0 40 40" fill="none" xmlns="http://www.w3.org/2000/svg">
<path d="M33.0434 10.4348H6.95651C6.47651 10.4348 6.08691 10.8243 6.08691 11.3043V35.6522C6.08691 38.0487 8.03822 40 10.4347 40H29.5652C31.9617 40 33.913 38.0487 33.913 35.6522V11.3043C33.913 10.8243 33.5234 10.4348 33.0434 10.4348ZM32.1739 35.6521C32.1739 37.0904 31.0035 38.2608 29.5652 38.2608H10.4348C8.9965 38.2608 7.8261 37.0904 7.8261 35.6521V12.1739H32.1739V35.6521Z" fill="#FF2E00"/>
<path d="M34.7825 3.47829H33.826C33.4207 1.49568 31.6659 0 29.5651 0H10.4346C8.33374 0 6.57899 1.49568 6.17374 3.47829H5.21725C4.73725 3.47829 4.34766 3.86788 4.34766 4.34788V7.82608C4.34766 8.30608 4.73725 8.69567 5.21725 8.69567H34.7825C35.2625 8.69567 35.6521 8.30608 35.6521 7.82608V4.3478C35.652 3.8678 35.2625 3.47829 34.7825 3.47829ZM33.9129 6.95649H6.08684V5.21739H6.95643C7.43635 5.21739 7.82594 4.8278 7.82594 4.3478C7.82594 2.90951 8.99635 1.7391 10.4346 1.7391H29.5651C31.0034 1.7391 32.1738 2.90951 32.1738 4.3478C32.1738 4.8278 32.5634 5.21739 33.0434 5.21739H33.9129V6.95649Z" fill="#FF2E00"/>
<path d="M12.1738 15.6522C11.6938 15.6522 11.3042 16.0418 11.3042 16.5218V33.913C11.3042 34.393 11.6938 34.7826 12.1738 34.7826C12.6538 34.7826 13.0434 34.393 13.0434 33.913V16.5218C13.0434 16.0418 12.6538 15.6522 12.1738 15.6522Z" fill="#FF2E00"/>
<path d="M20 15.6522C19.52 15.6522 19.1304 16.0418 19.1304 16.5218V33.913C19.1304 34.393 19.52 34.7826 20 34.7826C20.4799 34.7826 20.8695 34.393 20.8695 33.913V16.5218C20.8695 16.0418 20.4799 15.6522 20 15.6522Z" fill="#FF2E00"/>
<path d="M27.8261 15.6522C27.3461 15.6522 26.9565 16.0418 26.9565 16.5218V33.913C26.9565 34.393 27.3461 34.7826 27.8261 34.7826C28.3061 34.7826 28.6957 34.393 28.6957 33.913V16.5218C28.6957 16.0418 28.3061 15.6522 27.8261 15.6522Z" fill="#FF2E00"/>
</svg>
