<svg width="40" height="40" viewBox="0 0 40 40" fill="none" xmlns="http://www.w3.org/2000/svg">
<path d="M25.8342 11.6657H0.833385C0.373371 11.6657 0 12.0391 0 12.4991V35.8332C0 38.1299 1.86842 40 4.16677 40H22.5007C24.7991 40 26.6675 38.1299 26.6675 35.8332V12.4991C26.6675 12.0391 26.2942 11.6657 25.8342 11.6657ZM25.0008 35.8332C25.0008 37.2116 23.8791 38.3333 22.5007 38.3333H4.16677C2.78837 38.3333 1.66669 37.2116 1.66669 35.8332V13.3325H25.0008V35.8332Z" fill="#FF2E00"/>
<path d="M39.7562 20.2794L39.1078 19.631C39.5562 18.956 39.7978 18.1626 39.7978 17.3326C39.7978 16.2192 39.3662 15.1725 38.5778 14.3858L25.6141 1.42215C24.1924 -0.0012501 21.9874 -0.176256 20.3706 0.892137L19.7222 0.243758C19.3972 -0.0812525 18.8688 -0.0812525 18.5438 0.243758L16.1871 2.60047C15.8621 2.92548 15.8621 3.45386 16.1871 3.77887L36.2211 23.8145C36.3777 23.9695 36.5894 24.0579 36.8111 24.0579C37.0327 24.0579 37.2445 23.9695 37.3995 23.8145L39.7562 21.4578C40.0812 21.1328 40.0812 20.6044 39.7562 20.2794ZM37.3978 20.2777L37.9878 20.8678L36.8094 22.0462L17.9539 3.18885L19.1306 2.00881L19.7206 2.59883C20.0456 2.92384 20.574 2.92384 20.899 2.59883C21.8724 1.62544 23.4607 1.62544 24.4341 2.59883L37.3978 15.5626C37.8695 16.036 38.1295 16.6626 38.1295 17.331C38.1295 17.9994 37.8695 18.6277 37.3978 19.0994C37.0727 19.4244 37.0727 19.9527 37.3978 20.2777Z" fill="#FF2E00"/>
<path d="M5.83339 16.6659C5.37337 16.6659 5 17.0393 5 17.4993V34.1664C5 34.6264 5.37337 34.9998 5.83339 34.9998C6.2934 34.9998 6.66677 34.6264 6.66677 34.1664V17.4993C6.66669 17.0393 6.2934 16.6659 5.83339 16.6659Z" fill="#FF2E00"/>
<path d="M13.3339 16.6659C12.8739 16.6659 12.5005 17.0393 12.5005 17.4993V34.1664C12.5005 34.6264 12.8739 34.9998 13.3339 34.9998C13.7939 34.9998 14.1673 34.6264 14.1673 34.1664V17.4993C14.1672 17.0393 13.7939 16.6659 13.3339 16.6659Z" fill="#FF2E00"/>
<path d="M20.8339 16.6659C20.3739 16.6659 20.0005 17.0393 20.0005 17.4993V34.1664C20.0005 34.6264 20.3739 34.9998 20.8339 34.9998C21.2939 34.9998 21.6673 34.6264 21.6673 34.1664V17.4993C21.6672 17.0393 21.2939 16.6659 20.8339 16.6659Z" fill="#FF2E00"/>
<path d="M17.5008 8.33236H14.9173C14.5307 6.4323 12.8456 4.9989 10.8338 4.9989C8.82206 4.9989 7.13709 6.4323 6.75043 8.33236H5.83376C3.53533 8.33236 1.66699 10.2024 1.66699 12.4991C1.66699 12.9591 2.04036 13.3325 2.50038 13.3325C2.96039 13.3325 3.33376 12.9591 3.33376 12.4991C3.33376 11.1207 4.45544 9.99905 5.83384 9.99905H7.50046C7.96047 9.99905 8.33384 9.62568 8.33384 9.16567C8.33384 7.78727 9.45552 6.66559 10.8339 6.66559C12.2123 6.66559 13.334 7.78727 13.334 9.16567C13.334 9.62568 13.7074 9.99905 14.1674 9.99905H17.5008C18.8792 9.99905 20.0008 11.1207 20.0008 12.4991C20.0008 12.9591 20.3742 13.3325 20.8342 13.3325C21.2942 13.3325 21.6676 12.9591 21.6676 12.4991C21.6675 10.2024 19.7992 8.33236 17.5008 8.33236Z" fill="#FF2E00"/>
</svg>
