<svg width="40" height="40" viewBox="0 0 40 40" fill="none" xmlns="http://www.w3.org/2000/svg">
<path d="M39.9316 22.3632C39.2242 15.2233 32.7993 10.0009 25.6245 10.0009H14.9997V3.75107C14.9997 3.27108 14.7247 2.83359 14.2922 2.62359C13.8572 2.4161 13.3447 2.47109 12.9697 2.77359L0.46999 12.7734C0.172496 13.0134 0 13.3709 0 13.7509C0 14.1308 0.172496 14.4883 0.46749 14.7283L12.9672 24.7281C13.1947 24.9081 13.4722 25.0006 13.7497 25.0006C13.9347 25.0006 14.1197 24.9606 14.2922 24.8781C14.7247 24.6681 14.9997 24.2306 14.9997 23.7506V17.5008H25.8894C29.1594 17.5008 32.1393 19.8507 32.4668 23.1032C32.8443 26.8431 29.9119 30.0005 26.2494 30.0005H16.2497C15.5597 30.0005 14.9997 30.5605 14.9997 31.2505V36.2504C14.9997 36.9404 15.5597 37.5003 16.2497 37.5003H26.2494C34.2818 37.5003 40.7391 30.558 39.9316 22.3632Z" fill="#474747"/>
</svg>
